<?xml version="1.0" encoding="UTF-8" standalone="no"?>
<!DOCTYPE svg PUBLIC "-//W3C//DTD SVG 1.1//EN"
 "http://www.w3.org/Graphics/SVG/1.1/DTD/svg11.dtd">
<!-- Generated by graphviz version 2.43.0 (0)
 -->
<!-- Title: g Pages: 1 -->
<svg width="344pt" height="91pt"
 viewBox="0.00 0.00 344.39 91.20" xmlns="http://www.w3.org/2000/svg" xmlns:xlink="http://www.w3.org/1999/xlink">
<g id="graph0" class="graph" transform="scale(1 1) rotate(0) translate(4 87.2)">
<title>g</title>
<polygon fill="white" stroke="transparent" points="-4,4 -4,-87.2 340.39,-87.2 340.39,4 -4,4"/>
<!-- 0 -->
<g id="node1" class="node">
<title>0</title>
<text text-anchor="middle" x="27" y="-18.4" font-family="Times,serif" font-size="14.00">A: </text>
</g>
<!-- 1 -->
<g id="node2" class="node">
<title>1</title>
<ellipse fill="none" stroke="black" cx="113" cy="-22.1" rx="18" ry="18"/>
<ellipse fill="none" stroke="black" cx="113" cy="-22.1" rx="22" ry="22"/>
<text text-anchor="middle" x="113" y="-18.4" font-family="Times,serif" font-size="14.00">0</text>
</g>
<!-- 0&#45;&gt;1 -->
<g id="edge1" class="edge">
<title>0&#45;&gt;1</title>
<path fill="none" stroke="black" d="M54.12,-22.1C62.54,-22.1 71.96,-22.1 80.72,-22.1"/>
<polygon fill="black" stroke="black" points="80.96,-25.6 90.96,-22.1 80.96,-18.6 80.96,-25.6"/>
</g>
<!-- 1&#45;&gt;1 -->
<g id="edge2" class="edge">
<title>1&#45;&gt;1</title>
<path fill="none" stroke="black" d="M105.68,-43.09C104.78,-53.19 107.22,-62.1 113,-62.1 116.7,-62.1 119.04,-58.44 120,-53.16"/>
<polygon fill="black" stroke="black" points="123.5,-53.2 120.32,-43.09 116.5,-52.97 123.5,-53.2"/>
<text text-anchor="middle" x="113" y="-65.9" font-family="Times,serif" font-size="14.00">a</text>
</g>
<!-- 2 -->
<g id="node3" class="node">
<title>2</title>
<ellipse fill="none" stroke="black" cx="224.1" cy="-61.1" rx="22.2" ry="22.2"/>
<text text-anchor="middle" x="224.1" y="-57.4" font-family="Times,serif" font-size="14.00">p_i</text>
</g>
<!-- 1&#45;&gt;2 -->
<g id="edge3" class="edge">
<title>1&#45;&gt;2</title>
<path fill="none" stroke="black" d="M134.01,-29.25C150.59,-35.18 174.41,-43.69 193.24,-50.43"/>
<polygon fill="black" stroke="black" points="192.25,-53.79 202.85,-53.86 194.61,-47.2 192.25,-53.79"/>
<text text-anchor="middle" x="168.5" y="-49.9" font-family="Times,serif" font-size="14.00">call_i</text>
</g>
<!-- 3 -->
<g id="node4" class="node">
<title>3</title>
<ellipse fill="none" stroke="black" cx="314.29" cy="-22.1" rx="22.2" ry="22.2"/>
<text text-anchor="middle" x="314.29" y="-18.4" font-family="Times,serif" font-size="14.00">q_i</text>
</g>
<!-- 2&#45;&gt;3 -->
<g id="edge4" class="edge">
<title>2&#45;&gt;3</title>
<path fill="none" stroke="black" d="M244.67,-52.44C256.32,-47.29 271.31,-40.66 284.31,-34.91"/>
<polygon fill="black" stroke="black" points="286.05,-37.97 293.78,-30.73 283.21,-31.57 286.05,-37.97"/>
<text text-anchor="middle" x="269.2" y="-45.9" font-family="Times,serif" font-size="14.00">A</text>
</g>
<!-- 3&#45;&gt;1 -->
<g id="edge5" class="edge">
<title>3&#45;&gt;1</title>
<path fill="none" stroke="black" d="M292.18,-19.33C278.99,-17.74 261.64,-15.9 246.2,-15.1 211.7,-13.3 172.15,-16.03 145.36,-18.59"/>
<polygon fill="black" stroke="black" points="144.66,-15.14 135.06,-19.62 145.36,-22.1 144.66,-15.14"/>
<text text-anchor="middle" x="224.1" y="-18.9" font-family="Times,serif" font-size="14.00">return_i</text>
</g>
</g>
</svg>
