<?xml version="1.0" encoding="UTF-8" standalone="no"?>
<!DOCTYPE svg PUBLIC "-//W3C//DTD SVG 1.1//EN"
 "http://www.w3.org/Graphics/SVG/1.1/DTD/svg11.dtd">
<!-- Generated by graphviz version 14.1.4 (20260321.0153)
 -->
<!-- Title: g Pages: 1 -->
<svg width="346pt" height="94pt"
 viewBox="0.00 0.00 346.00 94.00" xmlns="http://www.w3.org/2000/svg" xmlns:xlink="http://www.w3.org/1999/xlink">
<g id="graph0" class="graph" transform="scale(1 1) rotate(0) translate(4 90.38)">
<title>g</title>
<polygon fill="white" stroke="none" points="-4,4 -4,-90.38 341.51,-90.38 341.51,4 -4,4"/>
<!-- 0 -->
<g id="node1" class="node">
<title>0</title>
<text xml:space="preserve" text-anchor="middle" x="27" y="-17.64" font-family="Times,serif" font-size="14.00">A: </text>
</g>
<!-- 1 -->
<g id="node2" class="node">
<title>1</title>
<ellipse fill="none" stroke="black" cx="113" cy="-22.69" rx="18" ry="18"/>
<ellipse fill="none" stroke="black" cx="113" cy="-22.69" rx="22" ry="22"/>
<text xml:space="preserve" text-anchor="middle" x="113" y="-17.64" font-family="Times,serif" font-size="14.00">0</text>
</g>
<!-- 0&#45;&gt;1 -->
<g id="edge1" class="edge">
<title>0&#45;&gt;1</title>
<path fill="none" stroke="black" d="M53.66,-22.69C61.73,-22.69 70.75,-22.69 79.24,-22.69"/>
<polygon fill="black" stroke="black" points="79.22,-26.19 89.22,-22.69 79.22,-19.19 79.22,-26.19"/>
</g>
<!-- 1&#45;&gt;1 -->
<g id="edge2" class="edge">
<title>1&#45;&gt;1</title>
<path fill="none" stroke="black" d="M105.59,-43.68C104.68,-53.78 107.15,-62.69 113,-62.69 116.48,-62.69 118.76,-59.55 119.85,-54.88"/>
<polygon fill="black" stroke="black" points="123.33,-55.36 120.33,-45.19 116.34,-55 123.33,-55.36"/>
<text xml:space="preserve" text-anchor="middle" x="113" y="-65.89" font-family="Times,serif" font-size="14.00">a</text>
</g>
<!-- 2 -->
<g id="node3" class="node">
<title>2</title>
<ellipse fill="none" stroke="black" cx="223.69" cy="-63.69" rx="22.69" ry="22.69"/>
<text xml:space="preserve" text-anchor="middle" x="223.69" y="-58.64" font-family="Times,serif" font-size="14.00">p_i</text>
</g>
<!-- 1&#45;&gt;2 -->
<g id="edge3" class="edge">
<title>1&#45;&gt;2</title>
<path fill="none" stroke="black" d="M133.94,-30.21C150.05,-36.29 173.02,-44.95 191.55,-51.94"/>
<polygon fill="black" stroke="black" points="190.13,-55.15 200.73,-55.41 192.61,-48.6 190.13,-55.15"/>
<text xml:space="preserve" text-anchor="middle" x="168" y="-51.27" font-family="Times,serif" font-size="14.00">call_i</text>
</g>
<!-- 3 -->
<g id="node4" class="node">
<title>3</title>
<ellipse fill="none" stroke="black" cx="314.82" cy="-22.69" rx="22.69" ry="22.69"/>
<text xml:space="preserve" text-anchor="middle" x="314.82" y="-17.64" font-family="Times,serif" font-size="14.00">q_i</text>
</g>
<!-- 2&#45;&gt;3 -->
<g id="edge4" class="edge">
<title>2&#45;&gt;3</title>
<path fill="none" stroke="black" d="M244.92,-54.39C256.31,-49.14 270.77,-42.49 283.5,-36.64"/>
<polygon fill="black" stroke="black" points="284.68,-39.95 292.3,-32.59 281.75,-33.59 284.68,-39.95"/>
<text xml:space="preserve" text-anchor="middle" x="269.26" y="-47.62" font-family="Times,serif" font-size="14.00">A</text>
</g>
<!-- 3&#45;&gt;1 -->
<g id="edge5" class="edge">
<title>3&#45;&gt;1</title>
<path fill="none" stroke="black" d="M292,-19.64C278.82,-17.96 261.67,-16.04 246.38,-15.19 212.3,-13.3 173.28,-16.12 146.48,-18.82"/>
<polygon fill="black" stroke="black" points="146.17,-15.33 136.6,-19.88 146.91,-22.29 146.17,-15.33"/>
<text xml:space="preserve" text-anchor="middle" x="223.69" y="-18.39" font-family="Times,serif" font-size="14.00">ret_i</text>
</g>
</g>
</svg>
