<?xml version="1.0" encoding="UTF-8" standalone="no"?>
<!DOCTYPE svg PUBLIC "-//W3C//DTD SVG 1.1//EN"
 "http://www.w3.org/Graphics/SVG/1.1/DTD/svg11.dtd">
<!-- Generated by graphviz version 2.43.0 (0)
 -->
<!-- Title: g Pages: 1 -->
<svg width="432pt" height="181pt"
 viewBox="0.00 0.00 432.00 181.00" xmlns="http://www.w3.org/2000/svg" xmlns:xlink="http://www.w3.org/1999/xlink">
<g id="graph0" class="graph" transform="scale(1 1) rotate(0) translate(4 177)">
<title>g</title>
<polygon fill="white" stroke="transparent" points="-4,4 -4,-177 428,-177 428,4 -4,4"/>
<!-- 0 -->
<g id="node1" class="node">
<title>0</title>
<text text-anchor="middle" x="27" y="-18.3" font-family="Times,serif" font-size="14.00">S: </text>
</g>
<!-- 1 -->
<g id="node2" class="node">
<title>1</title>
<ellipse fill="none" stroke="black" cx="113" cy="-22" rx="18" ry="18"/>
<text text-anchor="middle" x="113" y="-18.3" font-family="Times,serif" font-size="14.00">0</text>
</g>
<!-- 0&#45;&gt;1 -->
<g id="edge1" class="edge">
<title>0&#45;&gt;1</title>
<path fill="none" stroke="black" d="M54.12,-22C63.88,-22 74.98,-22 84.84,-22"/>
<polygon fill="black" stroke="black" points="84.92,-25.5 94.92,-22 84.92,-18.5 84.92,-25.5"/>
</g>
<!-- 2 -->
<g id="node3" class="node">
<title>2</title>
<ellipse fill="none" stroke="black" cx="224" cy="-22" rx="18" ry="18"/>
<text text-anchor="middle" x="224" y="-18.3" font-family="Times,serif" font-size="14.00">1</text>
</g>
<!-- 1&#45;&gt;2 -->
<g id="edge2" class="edge">
<title>1&#45;&gt;2</title>
<path fill="none" stroke="black" d="M131.03,-22C148.29,-22 175.26,-22 195.54,-22"/>
<polygon fill="black" stroke="black" points="195.73,-25.5 205.73,-22 195.73,-18.5 195.73,-25.5"/>
<text text-anchor="middle" x="168.5" y="-25.8" font-family="Times,serif" font-size="14.00">d_rev</text>
</g>
<!-- 3 -->
<g id="node4" class="node">
<title>3</title>
<ellipse fill="none" stroke="black" cx="314" cy="-22" rx="18" ry="18"/>
<text text-anchor="middle" x="314" y="-18.3" font-family="Times,serif" font-size="14.00">2</text>
</g>
<!-- 2&#45;&gt;3 -->
<g id="edge3" class="edge">
<title>2&#45;&gt;3</title>
<path fill="none" stroke="black" d="M242.39,-22C254.76,-22 271.63,-22 285.78,-22"/>
<polygon fill="black" stroke="black" points="285.95,-25.5 295.95,-22 285.95,-18.5 285.95,-25.5"/>
<text text-anchor="middle" x="269" y="-25.8" font-family="Times,serif" font-size="14.00">V</text>
</g>
<!-- 4 -->
<g id="node5" class="node">
<title>4</title>
<ellipse fill="none" stroke="black" cx="402" cy="-22" rx="18" ry="18"/>
<ellipse fill="none" stroke="black" cx="402" cy="-22" rx="22" ry="22"/>
<text text-anchor="middle" x="402" y="-18.3" font-family="Times,serif" font-size="14.00">3</text>
</g>
<!-- 3&#45;&gt;4 -->
<g id="edge4" class="edge">
<title>3&#45;&gt;4</title>
<path fill="none" stroke="black" d="M332.4,-22C343.14,-22 357.22,-22 369.83,-22"/>
<polygon fill="black" stroke="black" points="369.98,-25.5 379.98,-22 369.98,-18.5 369.98,-25.5"/>
<text text-anchor="middle" x="358" y="-25.8" font-family="Times,serif" font-size="14.00">d</text>
</g>
<!-- v_0 -->
<g id="node6" class="node">
<title>v_0</title>
<text text-anchor="middle" x="27" y="-114.3" font-family="Times,serif" font-size="14.00">V: </text>
</g>
<!-- v_1 -->
<g id="node7" class="node">
<title>v_1</title>
<ellipse fill="none" stroke="black" cx="113" cy="-118" rx="18" ry="18"/>
<ellipse fill="none" stroke="black" cx="113" cy="-118" rx="22" ry="22"/>
<text text-anchor="middle" x="113" y="-114.3" font-family="Times,serif" font-size="14.00">0</text>
</g>
<!-- v_0&#45;&gt;v_1 -->
<g id="edge5" class="edge">
<title>v_0&#45;&gt;v_1</title>
<path fill="none" stroke="black" d="M54.12,-118C62.54,-118 71.96,-118 80.72,-118"/>
<polygon fill="black" stroke="black" points="80.96,-121.5 90.96,-118 80.96,-114.5 80.96,-121.5"/>
</g>
<!-- v_1&#45;&gt;v_1 -->
<g id="edge7" class="edge">
<title>v_1&#45;&gt;v_1</title>
<path fill="none" stroke="black" d="M105.68,-138.99C104.78,-149.09 107.22,-158 113,-158 116.7,-158 119.04,-154.34 120,-149.06"/>
<polygon fill="black" stroke="black" points="123.5,-149.1 120.32,-138.99 116.5,-148.87 123.5,-149.1"/>
<text text-anchor="middle" x="113" y="-161.8" font-family="Times,serif" font-size="14.00">a_rev</text>
</g>
<!-- v_2 -->
<g id="node8" class="node">
<title>v_2</title>
<ellipse fill="none" stroke="black" cx="224" cy="-140" rx="18" ry="18"/>
<ellipse fill="none" stroke="black" cx="224" cy="-140" rx="22" ry="22"/>
<text text-anchor="middle" x="224" y="-136.3" font-family="Times,serif" font-size="14.00">1</text>
</g>
<!-- v_1&#45;&gt;v_2 -->
<g id="edge8" class="edge">
<title>v_1&#45;&gt;v_2</title>
<path fill="none" stroke="black" d="M133.05,-127.17C139.28,-129.8 146.31,-132.38 153,-134 165.47,-137.02 179.51,-138.57 191.73,-139.35"/>
<polygon fill="black" stroke="black" points="191.74,-142.85 201.9,-139.85 192.09,-135.86 191.74,-142.85"/>
<text text-anchor="middle" x="168.5" y="-141.8" font-family="Times,serif" font-size="14.00">S</text>
</g>
<!-- v_3 -->
<g id="node9" class="node">
<title>v_3</title>
<ellipse fill="none" stroke="black" cx="314" cy="-94" rx="18" ry="18"/>
<ellipse fill="none" stroke="black" cx="314" cy="-94" rx="22" ry="22"/>
<text text-anchor="middle" x="314" y="-90.3" font-family="Times,serif" font-size="14.00">2</text>
</g>
<!-- v_1&#45;&gt;v_3 -->
<g id="edge6" class="edge">
<title>v_1&#45;&gt;v_3</title>
<path fill="none" stroke="black" d="M134.63,-112.12C140.55,-110.44 147.03,-108.63 153,-107 174.73,-101.05 179.66,-96.91 202,-94 228.77,-90.51 259.48,-90.84 281.8,-91.85"/>
<polygon fill="black" stroke="black" points="281.86,-95.36 292.03,-92.39 282.23,-88.37 281.86,-95.36"/>
<text text-anchor="middle" x="224" y="-97.8" font-family="Times,serif" font-size="14.00">a</text>
</g>
<!-- v_2&#45;&gt;v_1 -->
<g id="edge9" class="edge">
<title>v_2&#45;&gt;v_1</title>
<path fill="none" stroke="black" d="M206.57,-126.51C199.97,-121.92 192.03,-117.35 184,-115 171.54,-111.35 157.3,-111.26 144.93,-112.41"/>
<polygon fill="black" stroke="black" points="144.14,-108.98 134.64,-113.67 144.99,-115.93 144.14,-108.98"/>
<text text-anchor="middle" x="168.5" y="-118.8" font-family="Times,serif" font-size="14.00">a_rev</text>
</g>
<!-- v_2&#45;&gt;v_3 -->
<g id="edge10" class="edge">
<title>v_2&#45;&gt;v_3</title>
<path fill="none" stroke="black" d="M244.09,-130.02C256.05,-123.77 271.67,-115.6 285.02,-108.63"/>
<polygon fill="black" stroke="black" points="287,-111.54 294.24,-103.8 283.76,-105.33 287,-111.54"/>
<text text-anchor="middle" x="269" y="-121.8" font-family="Times,serif" font-size="14.00">a</text>
</g>
<!-- v_3&#45;&gt;v_3 -->
<g id="edge11" class="edge">
<title>v_3&#45;&gt;v_3</title>
<path fill="none" stroke="black" d="M305.99,-114.58C304.89,-124.84 307.55,-134 314,-134 318.13,-134 320.71,-130.24 321.74,-124.84"/>
<polygon fill="black" stroke="black" points="325.24,-124.67 322.01,-114.58 318.25,-124.49 325.24,-124.67"/>
<text text-anchor="middle" x="314" y="-137.8" font-family="Times,serif" font-size="14.00">a</text>
</g>
<!-- v_4 -->
<g id="node10" class="node">
<title>v_4</title>
<ellipse fill="none" stroke="black" cx="402" cy="-91" rx="18" ry="18"/>
<ellipse fill="none" stroke="black" cx="402" cy="-91" rx="22" ry="22"/>
<text text-anchor="middle" x="402" y="-87.3" font-family="Times,serif" font-size="14.00">3</text>
</g>
<!-- v_3&#45;&gt;v_4 -->
<g id="edge12" class="edge">
<title>v_3&#45;&gt;v_4</title>
<path fill="none" stroke="black" d="M336.26,-93.26C346.36,-92.91 358.63,-92.48 369.77,-92.09"/>
<polygon fill="black" stroke="black" points="370.11,-95.58 379.99,-91.73 369.87,-88.58 370.11,-95.58"/>
<text text-anchor="middle" x="358" y="-95.8" font-family="Times,serif" font-size="14.00">S</text>
</g>
<!-- v_4&#45;&gt;v_3 -->
<g id="edge13" class="edge">
<title>v_4&#45;&gt;v_3</title>
<path fill="none" stroke="black" d="M383.47,-78.75C374.76,-74.11 364,-70.48 354,-73 350,-74.01 345.97,-75.51 342.09,-77.27"/>
<polygon fill="black" stroke="black" points="340.19,-74.31 332.88,-81.98 343.38,-80.54 340.19,-74.31"/>
<text text-anchor="middle" x="358" y="-76.8" font-family="Times,serif" font-size="14.00">a</text>
</g>
</g>
</svg>
