<?xml version="1.0" encoding="UTF-8" standalone="no"?>
<!DOCTYPE svg PUBLIC "-//W3C//DTD SVG 1.1//EN"
 "http://www.w3.org/Graphics/SVG/1.1/DTD/svg11.dtd">
<!-- Generated by graphviz version 2.43.0 (0)
 -->
<!-- Title: g Pages: 1 -->
<svg width="557pt" height="347pt"
 viewBox="0.00 0.00 557.39 347.00" xmlns="http://www.w3.org/2000/svg" xmlns:xlink="http://www.w3.org/1999/xlink">
<g id="graph0" class="graph" transform="scale(1 1) rotate(0) translate(4 343)">
<title>g</title>
<polygon fill="white" stroke="transparent" points="-4,4 -4,-343 553.39,-343 553.39,4 -4,4"/>
<!-- 0 -->
<g id="node1" class="node">
<title>0</title>
<text text-anchor="middle" x="36.5" y="-18.3" font-family="Times,serif" font-size="14.00">Alias: </text>
</g>
<!-- 1 -->
<g id="node2" class="node">
<title>1</title>
<ellipse fill="none" stroke="black" cx="132" cy="-22" rx="18" ry="18"/>
<text text-anchor="middle" x="132" y="-18.3" font-family="Times,serif" font-size="14.00">0</text>
</g>
<!-- 0&#45;&gt;1 -->
<g id="edge1" class="edge">
<title>0&#45;&gt;1</title>
<path fill="none" stroke="black" d="M63.54,-22C76.12,-22 91.21,-22 103.92,-22"/>
<polygon fill="black" stroke="black" points="103.94,-25.5 113.94,-22 103.94,-18.5 103.94,-25.5"/>
</g>
<!-- 2 -->
<g id="node3" class="node">
<title>2</title>
<ellipse fill="none" stroke="black" cx="263.1" cy="-22" rx="18" ry="18"/>
<text text-anchor="middle" x="263.1" y="-18.3" font-family="Times,serif" font-size="14.00">1</text>
</g>
<!-- 1&#45;&gt;2 -->
<g id="edge2" class="edge">
<title>1&#45;&gt;2</title>
<path fill="none" stroke="black" d="M150.14,-22C171.75,-22 209.15,-22 234.73,-22"/>
<polygon fill="black" stroke="black" points="234.88,-25.5 244.88,-22 234.88,-18.5 234.88,-25.5"/>
<text text-anchor="middle" x="197.5" y="-25.8" font-family="Times,serif" font-size="14.00">PointsTo</text>
</g>
<!-- 3 -->
<g id="node4" class="node">
<title>3</title>
<ellipse fill="none" stroke="black" cx="411.2" cy="-22" rx="18" ry="18"/>
<ellipse fill="none" stroke="black" cx="411.2" cy="-22" rx="22" ry="22"/>
<text text-anchor="middle" x="411.2" y="-18.3" font-family="Times,serif" font-size="14.00">2</text>
</g>
<!-- 2&#45;&gt;3 -->
<g id="edge3" class="edge">
<title>2&#45;&gt;3</title>
<path fill="none" stroke="black" d="M281.14,-22C305.01,-22 348.81,-22 378.7,-22"/>
<polygon fill="black" stroke="black" points="379.02,-25.5 389.02,-22 379.02,-18.5 379.02,-25.5"/>
<text text-anchor="middle" x="333.7" y="-25.8" font-family="Times,serif" font-size="14.00">FlowsTo</text>
</g>
<!-- v_0 -->
<g id="node5" class="node">
<title>v_0</title>
<text text-anchor="middle" x="36.5" y="-127.3" font-family="Times,serif" font-size="14.00">PointsTo: </text>
</g>
<!-- v_1 -->
<g id="node6" class="node">
<title>v_1</title>
<ellipse fill="none" stroke="black" cx="132" cy="-131" rx="18" ry="18"/>
<ellipse fill="none" stroke="black" cx="132" cy="-131" rx="22" ry="22"/>
<text text-anchor="middle" x="132" y="-127.3" font-family="Times,serif" font-size="14.00">0</text>
</g>
<!-- v_0&#45;&gt;v_1 -->
<g id="edge4" class="edge">
<title>v_0&#45;&gt;v_1</title>
<path fill="none" stroke="black" d="M73.12,-131C81.82,-131 91.08,-131 99.58,-131"/>
<polygon fill="black" stroke="black" points="99.83,-134.5 109.83,-131 99.83,-127.5 99.83,-134.5"/>
</g>
<!-- v_1&#45;&gt;v_1 -->
<g id="edge5" class="edge">
<title>v_1&#45;&gt;v_1</title>
<path fill="none" stroke="black" d="M124.68,-151.99C123.78,-162.09 126.22,-171 132,-171 135.7,-171 138.04,-167.34 139,-162.06"/>
<polygon fill="black" stroke="black" points="142.5,-162.1 139.32,-151.99 135.5,-161.87 142.5,-162.1"/>
<text text-anchor="middle" x="132" y="-174.8" font-family="Times,serif" font-size="14.00">assign</text>
</g>
<!-- v_2 -->
<g id="node7" class="node">
<title>v_2</title>
<ellipse fill="none" stroke="black" cx="263.1" cy="-193" rx="22.2" ry="22.2"/>
<text text-anchor="middle" x="263.1" y="-189.3" font-family="Times,serif" font-size="14.00">p_i</text>
</g>
<!-- v_1&#45;&gt;v_2 -->
<g id="edge7" class="edge">
<title>v_1&#45;&gt;v_2</title>
<path fill="none" stroke="black" d="M152.03,-140.31C158.37,-143.4 165.49,-146.86 172,-150 192.55,-159.91 215.79,-171 233.51,-179.43"/>
<polygon fill="black" stroke="black" points="232.21,-182.69 242.74,-183.82 235.22,-176.36 232.21,-182.69"/>
<text text-anchor="middle" x="197.5" y="-177.8" font-family="Times,serif" font-size="14.00">load_i</text>
</g>
<!-- v_4 -->
<g id="node9" class="node">
<title>v_4</title>
<ellipse fill="none" stroke="black" cx="263.1" cy="-131" rx="18" ry="18"/>
<ellipse fill="none" stroke="black" cx="263.1" cy="-131" rx="22" ry="22"/>
<text text-anchor="middle" x="263.1" y="-127.3" font-family="Times,serif" font-size="14.00">1</text>
</g>
<!-- v_1&#45;&gt;v_4 -->
<g id="edge6" class="edge">
<title>v_1&#45;&gt;v_4</title>
<path fill="none" stroke="black" d="M154.03,-131C174.85,-131 206.97,-131 230.79,-131"/>
<polygon fill="black" stroke="black" points="231.08,-134.5 241.08,-131 231.08,-127.5 231.08,-134.5"/>
<text text-anchor="middle" x="197.5" y="-134.8" font-family="Times,serif" font-size="14.00">alloc</text>
</g>
<!-- v_3 -->
<g id="node8" class="node">
<title>v_3</title>
<ellipse fill="none" stroke="black" cx="411.2" cy="-152" rx="22.2" ry="22.2"/>
<text text-anchor="middle" x="411.2" y="-148.3" font-family="Times,serif" font-size="14.00">q_i</text>
</g>
<!-- v_2&#45;&gt;v_3 -->
<g id="edge8" class="edge">
<title>v_2&#45;&gt;v_3</title>
<path fill="none" stroke="black" d="M284.72,-187.21C309.52,-180.25 351.36,-168.51 379.84,-160.52"/>
<polygon fill="black" stroke="black" points="381,-163.83 389.68,-157.76 379.1,-157.09 381,-163.83"/>
<text text-anchor="middle" x="333.7" y="-186.8" font-family="Times,serif" font-size="14.00">Alias</text>
</g>
<!-- v_3&#45;&gt;v_1 -->
<g id="edge9" class="edge">
<title>v_3&#45;&gt;v_1</title>
<path fill="none" stroke="black" d="M393.12,-139.27C370.05,-122.95 326.99,-95.49 285.2,-85 240.55,-73.79 189.49,-96.7 159.32,-114.04"/>
<polygon fill="black" stroke="black" points="157.46,-111.07 150.66,-119.2 161.04,-117.09 157.46,-111.07"/>
<text text-anchor="middle" x="263.1" y="-88.8" font-family="Times,serif" font-size="14.00">store_i</text>
</g>
<!-- u_0 -->
<g id="node10" class="node">
<title>u_0</title>
<text text-anchor="middle" x="36.5" y="-280.3" font-family="Times,serif" font-size="14.00">FlowsTo: </text>
</g>
<!-- u_1 -->
<g id="node11" class="node">
<title>u_1</title>
<ellipse fill="none" stroke="black" cx="132" cy="-284" rx="18" ry="18"/>
<text text-anchor="middle" x="132" y="-280.3" font-family="Times,serif" font-size="14.00">0</text>
</g>
<!-- u_0&#45;&gt;u_1 -->
<g id="edge10" class="edge">
<title>u_0&#45;&gt;u_1</title>
<path fill="none" stroke="black" d="M72.58,-284C82.82,-284 93.86,-284 103.56,-284"/>
<polygon fill="black" stroke="black" points="103.82,-287.5 113.82,-284 103.82,-280.5 103.82,-287.5"/>
</g>
<!-- u_4 -->
<g id="node14" class="node">
<title>u_4</title>
<ellipse fill="none" stroke="black" cx="263.1" cy="-284" rx="18" ry="18"/>
<ellipse fill="none" stroke="black" cx="263.1" cy="-284" rx="22" ry="22"/>
<text text-anchor="middle" x="263.1" y="-280.3" font-family="Times,serif" font-size="14.00">1</text>
</g>
<!-- u_1&#45;&gt;u_4 -->
<g id="edge11" class="edge">
<title>u_1&#45;&gt;u_4</title>
<path fill="none" stroke="black" d="M150.14,-284C170.67,-284 205.45,-284 230.8,-284"/>
<polygon fill="black" stroke="black" points="231.03,-287.5 241.02,-284 231.02,-280.5 231.03,-287.5"/>
<text text-anchor="middle" x="197.5" y="-287.8" font-family="Times,serif" font-size="14.00">alloc_rev</text>
</g>
<!-- u_2 -->
<g id="node12" class="node">
<title>u_2</title>
<ellipse fill="none" stroke="black" cx="411.2" cy="-248" rx="22.2" ry="22.2"/>
<text text-anchor="middle" x="411.2" y="-244.3" font-family="Times,serif" font-size="14.00">p_i</text>
</g>
<!-- u_3 -->
<g id="node13" class="node">
<title>u_3</title>
<ellipse fill="none" stroke="black" cx="527.29" cy="-277" rx="22.2" ry="22.2"/>
<text text-anchor="middle" x="527.29" y="-273.3" font-family="Times,serif" font-size="14.00">q_i</text>
</g>
<!-- u_2&#45;&gt;u_3 -->
<g id="edge13" class="edge">
<title>u_2&#45;&gt;u_3</title>
<path fill="none" stroke="black" d="M432.86,-253.25C450.47,-257.73 476.01,-264.22 495.95,-269.29"/>
<polygon fill="black" stroke="black" points="495.23,-272.72 505.79,-271.79 496.96,-265.93 495.23,-272.72"/>
<text text-anchor="middle" x="472.7" y="-270.8" font-family="Times,serif" font-size="14.00">Alias</text>
</g>
<!-- u_3&#45;&gt;u_4 -->
<g id="edge14" class="edge">
<title>u_3&#45;&gt;u_4</title>
<path fill="none" stroke="black" d="M505.72,-282.46C499.79,-283.83 493.27,-285.16 487.2,-286 406.15,-297.21 384.6,-300.24 303.2,-292 300.45,-291.72 297.61,-291.34 294.77,-290.88"/>
<polygon fill="black" stroke="black" points="295.14,-287.39 284.68,-289.02 293.87,-294.28 295.14,-287.39"/>
<text text-anchor="middle" x="411.2" y="-299.8" font-family="Times,serif" font-size="14.00">load_i_rev</text>
</g>
<!-- u_4&#45;&gt;u_2 -->
<g id="edge12" class="edge">
<title>u_4&#45;&gt;u_2</title>
<path fill="none" stroke="black" d="M284.72,-278.92C309.52,-272.81 351.36,-262.5 379.84,-255.48"/>
<polygon fill="black" stroke="black" points="380.81,-258.85 389.68,-253.06 379.13,-252.05 380.81,-258.85"/>
<text text-anchor="middle" x="333.7" y="-277.8" font-family="Times,serif" font-size="14.00">store_i_rev</text>
</g>
<!-- u_4&#45;&gt;u_4 -->
<g id="edge15" class="edge">
<title>u_4&#45;&gt;u_4</title>
<path fill="none" stroke="black" d="M251.76,-302.93C249.44,-313.84 253.22,-324 263.1,-324 269.73,-324 273.62,-319.41 274.75,-313.1"/>
<polygon fill="black" stroke="black" points="278.24,-312.82 274.44,-302.93 271.25,-313.03 278.24,-312.82"/>
<text text-anchor="middle" x="263.1" y="-327.8" font-family="Times,serif" font-size="14.00">assign_rev</text>
</g>
</g>
</svg>
