<?xml version="1.0" encoding="UTF-8" standalone="no"?>
<!DOCTYPE svg PUBLIC "-//W3C//DTD SVG 1.1//EN"
 "http://www.w3.org/Graphics/SVG/1.1/DTD/svg11.dtd">
<!-- Generated by graphviz version 2.43.0 (0)
 -->
<!-- Title: g Pages: 1 -->
<svg width="549pt" height="347pt"
 viewBox="0.00 0.00 549.39 347.00" xmlns="http://www.w3.org/2000/svg" xmlns:xlink="http://www.w3.org/1999/xlink">
<g id="graph0" class="graph" transform="scale(1 1) rotate(0) translate(4 343)">
<title>g</title>
<polygon fill="white" stroke="transparent" points="-4,4 -4,-343 545.39,-343 545.39,4 -4,4"/>
<!-- 0 -->
<g id="node1" class="node">
<title>0</title>
<text text-anchor="middle" x="36.5" y="-18.3" font-family="Times,serif" font-size="14.00">Alias: </text>
</g>
<!-- 1 -->
<g id="node2" class="node">
<title>1</title>
<ellipse fill="none" stroke="black" cx="128" cy="-22" rx="18" ry="18"/>
<text text-anchor="middle" x="128" y="-18.3" font-family="Times,serif" font-size="14.00">0</text>
</g>
<!-- 0&#45;&gt;1 -->
<g id="edge1" class="edge">
<title>0&#45;&gt;1</title>
<path fill="none" stroke="black" d="M63.87,-22C75.12,-22 88.25,-22 99.62,-22"/>
<polygon fill="black" stroke="black" points="99.85,-25.5 109.85,-22 99.85,-18.5 99.85,-25.5"/>
</g>
<!-- 2 -->
<g id="node3" class="node">
<title>2</title>
<ellipse fill="none" stroke="black" cx="255.1" cy="-22" rx="18" ry="18"/>
<text text-anchor="middle" x="255.1" y="-18.3" font-family="Times,serif" font-size="14.00">1</text>
</g>
<!-- 1&#45;&gt;2 -->
<g id="edge2" class="edge">
<title>1&#45;&gt;2</title>
<path fill="none" stroke="black" d="M146.13,-22C166.88,-22 202.1,-22 226.66,-22"/>
<polygon fill="black" stroke="black" points="226.77,-25.5 236.77,-22 226.77,-18.5 226.77,-25.5"/>
<text text-anchor="middle" x="189.5" y="-25.8" font-family="Times,serif" font-size="14.00">PointsTo</text>
</g>
<!-- 3 -->
<g id="node4" class="node">
<title>3</title>
<ellipse fill="none" stroke="black" cx="403.2" cy="-22" rx="18" ry="18"/>
<ellipse fill="none" stroke="black" cx="403.2" cy="-22" rx="22" ry="22"/>
<text text-anchor="middle" x="403.2" y="-18.3" font-family="Times,serif" font-size="14.00">2</text>
</g>
<!-- 2&#45;&gt;3 -->
<g id="edge3" class="edge">
<title>2&#45;&gt;3</title>
<path fill="none" stroke="black" d="M273.14,-22C297.01,-22 340.81,-22 370.7,-22"/>
<polygon fill="black" stroke="black" points="371.02,-25.5 381.02,-22 371.02,-18.5 371.02,-25.5"/>
<text text-anchor="middle" x="325.7" y="-25.8" font-family="Times,serif" font-size="14.00">FlowsTo</text>
</g>
<!-- v_0 -->
<g id="node5" class="node">
<title>v_0</title>
<text text-anchor="middle" x="36.5" y="-127.3" font-family="Times,serif" font-size="14.00">PointsTo: </text>
</g>
<!-- v_1 -->
<g id="node6" class="node">
<title>v_1</title>
<ellipse fill="none" stroke="black" cx="128" cy="-131" rx="18" ry="18"/>
<text text-anchor="middle" x="128" y="-127.3" font-family="Times,serif" font-size="14.00">0</text>
</g>
<!-- v_0&#45;&gt;v_1 -->
<g id="edge4" class="edge">
<title>v_0&#45;&gt;v_1</title>
<path fill="none" stroke="black" d="M73.13,-131C82.04,-131 91.46,-131 99.88,-131"/>
<polygon fill="black" stroke="black" points="99.91,-134.5 109.91,-131 99.91,-127.5 99.91,-134.5"/>
</g>
<!-- v_1&#45;&gt;v_1 -->
<g id="edge5" class="edge">
<title>v_1&#45;&gt;v_1</title>
<path fill="none" stroke="black" d="M121.62,-148.04C120.32,-157.86 122.45,-167 128,-167 131.47,-167 133.6,-163.43 134.4,-158.35"/>
<polygon fill="black" stroke="black" points="137.9,-158.03 134.38,-148.04 130.9,-158.04 137.9,-158.03"/>
<text text-anchor="middle" x="128" y="-170.8" font-family="Times,serif" font-size="14.00">assign</text>
</g>
<!-- v_2 -->
<g id="node7" class="node">
<title>v_2</title>
<ellipse fill="none" stroke="black" cx="255.1" cy="-193" rx="22.2" ry="22.2"/>
<text text-anchor="middle" x="255.1" y="-189.3" font-family="Times,serif" font-size="14.00">p_i</text>
</g>
<!-- v_1&#45;&gt;v_2 -->
<g id="edge7" class="edge">
<title>v_1&#45;&gt;v_2</title>
<path fill="none" stroke="black" d="M144.24,-139.5C150.35,-142.84 157.47,-146.67 164,-150 184.33,-160.36 207.57,-171.43 225.36,-179.75"/>
<polygon fill="black" stroke="black" points="224.08,-183.01 234.62,-184.06 227.03,-176.67 224.08,-183.01"/>
<text text-anchor="middle" x="189.5" y="-177.8" font-family="Times,serif" font-size="14.00">load_i</text>
</g>
<!-- v_4 -->
<g id="node9" class="node">
<title>v_4</title>
<ellipse fill="none" stroke="black" cx="255.1" cy="-131" rx="18" ry="18"/>
<ellipse fill="none" stroke="black" cx="255.1" cy="-131" rx="22" ry="22"/>
<text text-anchor="middle" x="255.1" y="-127.3" font-family="Times,serif" font-size="14.00">1</text>
</g>
<!-- v_1&#45;&gt;v_4 -->
<g id="edge6" class="edge">
<title>v_1&#45;&gt;v_4</title>
<path fill="none" stroke="black" d="M146.13,-131C165.83,-131 198.58,-131 222.85,-131"/>
<polygon fill="black" stroke="black" points="223,-134.5 233,-131 223,-127.5 223,-134.5"/>
<text text-anchor="middle" x="189.5" y="-134.8" font-family="Times,serif" font-size="14.00">alloc</text>
</g>
<!-- v_3 -->
<g id="node8" class="node">
<title>v_3</title>
<ellipse fill="none" stroke="black" cx="403.2" cy="-152" rx="22.2" ry="22.2"/>
<text text-anchor="middle" x="403.2" y="-148.3" font-family="Times,serif" font-size="14.00">q_i</text>
</g>
<!-- v_2&#45;&gt;v_3 -->
<g id="edge8" class="edge">
<title>v_2&#45;&gt;v_3</title>
<path fill="none" stroke="black" d="M276.72,-187.21C301.52,-180.25 343.36,-168.51 371.84,-160.52"/>
<polygon fill="black" stroke="black" points="373,-163.83 381.68,-157.76 371.1,-157.09 373,-163.83"/>
<text text-anchor="middle" x="325.7" y="-186.8" font-family="Times,serif" font-size="14.00">Alias</text>
</g>
<!-- v_3&#45;&gt;v_1 -->
<g id="edge9" class="edge">
<title>v_3&#45;&gt;v_1</title>
<path fill="none" stroke="black" d="M385.12,-139.27C362.05,-122.95 318.99,-95.49 277.2,-85 232.16,-73.69 180.6,-98.46 151.71,-115.85"/>
<polygon fill="black" stroke="black" points="149.79,-112.92 143.16,-121.19 153.5,-118.86 149.79,-112.92"/>
<text text-anchor="middle" x="255.1" y="-88.8" font-family="Times,serif" font-size="14.00">store_i</text>
</g>
<!-- u_0 -->
<g id="node10" class="node">
<title>u_0</title>
<text text-anchor="middle" x="36.5" y="-280.3" font-family="Times,serif" font-size="14.00">FlowsTo: </text>
</g>
<!-- u_1 -->
<g id="node11" class="node">
<title>u_1</title>
<ellipse fill="none" stroke="black" cx="128" cy="-284" rx="18" ry="18"/>
<text text-anchor="middle" x="128" y="-280.3" font-family="Times,serif" font-size="14.00">0</text>
</g>
<!-- u_0&#45;&gt;u_1 -->
<g id="edge10" class="edge">
<title>u_0&#45;&gt;u_1</title>
<path fill="none" stroke="black" d="M72.62,-284C81.57,-284 91.06,-284 99.57,-284"/>
<polygon fill="black" stroke="black" points="99.7,-287.5 109.7,-284 99.7,-280.5 99.7,-287.5"/>
</g>
<!-- u_4 -->
<g id="node14" class="node">
<title>u_4</title>
<ellipse fill="none" stroke="black" cx="255.1" cy="-284" rx="18" ry="18"/>
<ellipse fill="none" stroke="black" cx="255.1" cy="-284" rx="22" ry="22"/>
<text text-anchor="middle" x="255.1" y="-280.3" font-family="Times,serif" font-size="14.00">1</text>
</g>
<!-- u_1&#45;&gt;u_4 -->
<g id="edge11" class="edge">
<title>u_1&#45;&gt;u_4</title>
<path fill="none" stroke="black" d="M146.13,-284C165.83,-284 198.58,-284 222.85,-284"/>
<polygon fill="black" stroke="black" points="223,-287.5 233,-284 223,-280.5 223,-287.5"/>
<text text-anchor="middle" x="189.5" y="-287.8" font-family="Times,serif" font-size="14.00">alloc_rev</text>
</g>
<!-- u_2 -->
<g id="node12" class="node">
<title>u_2</title>
<ellipse fill="none" stroke="black" cx="403.2" cy="-248" rx="22.2" ry="22.2"/>
<text text-anchor="middle" x="403.2" y="-244.3" font-family="Times,serif" font-size="14.00">p_i</text>
</g>
<!-- u_3 -->
<g id="node13" class="node">
<title>u_3</title>
<ellipse fill="none" stroke="black" cx="519.29" cy="-277" rx="22.2" ry="22.2"/>
<text text-anchor="middle" x="519.29" y="-273.3" font-family="Times,serif" font-size="14.00">q_i</text>
</g>
<!-- u_2&#45;&gt;u_3 -->
<g id="edge13" class="edge">
<title>u_2&#45;&gt;u_3</title>
<path fill="none" stroke="black" d="M424.86,-253.25C442.47,-257.73 468.01,-264.22 487.95,-269.29"/>
<polygon fill="black" stroke="black" points="487.23,-272.72 497.79,-271.79 488.96,-265.93 487.23,-272.72"/>
<text text-anchor="middle" x="464.7" y="-270.8" font-family="Times,serif" font-size="14.00">Alias</text>
</g>
<!-- u_3&#45;&gt;u_4 -->
<g id="edge14" class="edge">
<title>u_3&#45;&gt;u_4</title>
<path fill="none" stroke="black" d="M497.72,-282.46C491.79,-283.83 485.27,-285.16 479.2,-286 398.15,-297.21 376.6,-300.24 295.2,-292 292.45,-291.72 289.61,-291.34 286.77,-290.88"/>
<polygon fill="black" stroke="black" points="287.14,-287.39 276.68,-289.02 285.87,-294.28 287.14,-287.39"/>
<text text-anchor="middle" x="403.2" y="-299.8" font-family="Times,serif" font-size="14.00">load_i_rev</text>
</g>
<!-- u_4&#45;&gt;u_2 -->
<g id="edge12" class="edge">
<title>u_4&#45;&gt;u_2</title>
<path fill="none" stroke="black" d="M276.72,-278.92C301.52,-272.81 343.36,-262.5 371.84,-255.48"/>
<polygon fill="black" stroke="black" points="372.81,-258.85 381.68,-253.06 371.13,-252.05 372.81,-258.85"/>
<text text-anchor="middle" x="325.7" y="-277.8" font-family="Times,serif" font-size="14.00">store_i_rev</text>
</g>
<!-- u_4&#45;&gt;u_4 -->
<g id="edge15" class="edge">
<title>u_4&#45;&gt;u_4</title>
<path fill="none" stroke="black" d="M243.76,-302.93C241.44,-313.84 245.22,-324 255.1,-324 261.73,-324 265.62,-319.41 266.75,-313.1"/>
<polygon fill="black" stroke="black" points="270.24,-312.82 266.44,-302.93 263.25,-313.03 270.24,-312.82"/>
<text text-anchor="middle" x="255.1" y="-327.8" font-family="Times,serif" font-size="14.00">assign_rev</text>
</g>
</g>
</svg>
