<?xml version="1.0" encoding="UTF-8" standalone="no"?>
<!DOCTYPE svg PUBLIC "-//W3C//DTD SVG 1.1//EN"
 "http://www.w3.org/Graphics/SVG/1.1/DTD/svg11.dtd">
<!-- Generated by graphviz version 2.43.0 (0)
 -->
<!-- Title: g Pages: 1 -->
<svg width="544pt" height="176pt"
 viewBox="0.00 0.00 544.00 176.00" xmlns="http://www.w3.org/2000/svg" xmlns:xlink="http://www.w3.org/1999/xlink">
<g id="graph0" class="graph" transform="scale(1 1) rotate(0) translate(4 172)">
<title>g</title>
<polygon fill="white" stroke="transparent" points="-4,4 -4,-172 540,-172 540,4 -4,4"/>
<!-- 0 -->
<g id="node1" class="node">
<title>0</title>
<text text-anchor="middle" x="27" y="-94.3" font-family="Times,serif" font-size="14.00">S: </text>
</g>
<!-- 1 -->
<g id="node2" class="node">
<title>1</title>
<ellipse fill="none" stroke="black" cx="109" cy="-98" rx="18" ry="18"/>
<text text-anchor="middle" x="109" y="-94.3" font-family="Times,serif" font-size="14.00">0</text>
</g>
<!-- 0&#45;&gt;1 -->
<g id="edge1" class="edge">
<title>0&#45;&gt;1</title>
<path fill="none" stroke="black" d="M54.19,-98C62.65,-98 72.05,-98 80.6,-98"/>
<polygon fill="black" stroke="black" points="80.83,-101.5 90.83,-98 80.83,-94.5 80.83,-101.5"/>
</g>
<!-- 2 -->
<g id="node3" class="node">
<title>2</title>
<ellipse fill="none" stroke="black" cx="268" cy="-125" rx="18" ry="18"/>
<text text-anchor="middle" x="268" y="-121.3" font-family="Times,serif" font-size="14.00">1</text>
</g>
<!-- 1&#45;&gt;2 -->
<g id="edge2" class="edge">
<title>1&#45;&gt;2</title>
<path fill="none" stroke="black" d="M126.8,-100.89C153.81,-105.53 207.14,-114.7 239.67,-120.3"/>
<polygon fill="black" stroke="black" points="239.39,-123.8 249.84,-122.05 240.58,-116.91 239.39,-123.8"/>
<text text-anchor="middle" x="188.5" y="-121.8" font-family="Times,serif" font-size="14.00">type_rev</text>
</g>
<!-- 4 -->
<g id="node5" class="node">
<title>4</title>
<ellipse fill="none" stroke="black" cx="268" cy="-71" rx="18" ry="18"/>
<text text-anchor="middle" x="268" y="-67.3" font-family="Times,serif" font-size="14.00">3</text>
</g>
<!-- 1&#45;&gt;4 -->
<g id="edge4" class="edge">
<title>1&#45;&gt;4</title>
<path fill="none" stroke="black" d="M125.78,-91.22C131.71,-88.92 138.57,-86.54 145,-85 176.97,-77.35 214.68,-73.83 239.63,-72.25"/>
<polygon fill="black" stroke="black" points="240.02,-75.73 249.8,-71.67 239.62,-68.75 240.02,-75.73"/>
<text text-anchor="middle" x="188.5" y="-88.8" font-family="Times,serif" font-size="14.00">subClassOf_rev</text>
</g>
<!-- 3 -->
<g id="node4" class="node">
<title>3</title>
<ellipse fill="none" stroke="black" cx="514" cy="-97" rx="18" ry="18"/>
<ellipse fill="none" stroke="black" cx="514" cy="-97" rx="22" ry="22"/>
<text text-anchor="middle" x="514" y="-93.3" font-family="Times,serif" font-size="14.00">2</text>
</g>
<!-- 2&#45;&gt;3 -->
<g id="edge3" class="edge">
<title>2&#45;&gt;3</title>
<path fill="none" stroke="black" d="M284.01,-133.61C290.08,-136.85 297.24,-140.39 304,-143 341.01,-157.31 353.53,-154.1 393,-150 429.59,-146.2 441.31,-149.86 474,-133 480.27,-129.77 486.28,-125.24 491.63,-120.49"/>
<polygon fill="black" stroke="black" points="494.13,-122.94 498.93,-113.5 489.29,-117.89 494.13,-122.94"/>
<text text-anchor="middle" x="361.5" y="-156.8" font-family="Times,serif" font-size="14.00">type</text>
</g>
<!-- 5 -->
<g id="node6" class="node">
<title>5</title>
<ellipse fill="none" stroke="black" cx="361.5" cy="-123" rx="18" ry="18"/>
<text text-anchor="middle" x="361.5" y="-119.3" font-family="Times,serif" font-size="14.00">4</text>
</g>
<!-- 2&#45;&gt;5 -->
<g id="edge8" class="edge">
<title>2&#45;&gt;5</title>
<path fill="none" stroke="black" d="M286.21,-124.62C299.37,-124.34 317.79,-123.93 332.99,-123.6"/>
<polygon fill="black" stroke="black" points="333.45,-127.09 343.37,-123.37 333.29,-120.09 333.45,-127.09"/>
<text text-anchor="middle" x="308" y="-127.8" font-family="Times,serif" font-size="14.00">S</text>
</g>
<!-- 4&#45;&gt;3 -->
<g id="edge5" class="edge">
<title>4&#45;&gt;3</title>
<path fill="none" stroke="black" d="M286.28,-72.11C310.26,-73.71 354.99,-76.94 393,-81 423.22,-84.23 457.59,-88.92 481.77,-92.38"/>
<polygon fill="black" stroke="black" points="481.4,-95.87 491.8,-93.83 482.4,-88.94 481.4,-95.87"/>
<text text-anchor="middle" x="361.5" y="-84.8" font-family="Times,serif" font-size="14.00">subClassOf</text>
</g>
<!-- 6 -->
<g id="node7" class="node">
<title>6</title>
<ellipse fill="none" stroke="black" cx="361.5" cy="-18" rx="18" ry="18"/>
<text text-anchor="middle" x="361.5" y="-14.3" font-family="Times,serif" font-size="14.00">5</text>
</g>
<!-- 4&#45;&gt;6 -->
<g id="edge6" class="edge">
<title>4&#45;&gt;6</title>
<path fill="none" stroke="black" d="M282.03,-59.24C288.37,-53.87 296.28,-47.68 304,-43 313.63,-37.15 324.86,-31.9 334.77,-27.73"/>
<polygon fill="black" stroke="black" points="336.16,-30.94 344.12,-23.95 333.54,-24.45 336.16,-30.94"/>
<text text-anchor="middle" x="308" y="-46.8" font-family="Times,serif" font-size="14.00">S</text>
</g>
<!-- 5&#45;&gt;3 -->
<g id="edge9" class="edge">
<title>5&#45;&gt;3</title>
<path fill="none" stroke="black" d="M379.47,-120.07C404.34,-115.77 451.07,-107.7 482.12,-102.33"/>
<polygon fill="black" stroke="black" points="482.74,-105.78 492,-100.63 481.55,-98.88 482.74,-105.78"/>
<text text-anchor="middle" x="442.5" y="-117.8" font-family="Times,serif" font-size="14.00">type</text>
</g>
<!-- 6&#45;&gt;3 -->
<g id="edge7" class="edge">
<title>6&#45;&gt;3</title>
<path fill="none" stroke="black" d="M379.82,-18.17C403.08,-19.17 444.85,-23.78 474,-43 483.83,-49.48 492.01,-59.35 498.3,-68.89"/>
<polygon fill="black" stroke="black" points="495.33,-70.74 503.53,-77.44 501.3,-67.09 495.33,-70.74"/>
<text text-anchor="middle" x="442.5" y="-46.8" font-family="Times,serif" font-size="14.00">subClassOf</text>
</g>
</g>
</svg>
