<?xml version="1.0" encoding="UTF-8" standalone="no"?>
<!DOCTYPE svg PUBLIC "-//W3C//DTD SVG 1.1//EN"
 "http://www.w3.org/Graphics/SVG/1.1/DTD/svg11.dtd">
<!-- Generated by graphviz version 2.43.0 (0)
 -->
<!-- Title: g Pages: 1 -->
<svg width="679pt" height="247pt"
 viewBox="0.00 0.00 679.39 247.00" xmlns="http://www.w3.org/2000/svg" xmlns:xlink="http://www.w3.org/1999/xlink">
<g id="graph0" class="graph" transform="scale(1 1) rotate(0) translate(4 243)">
<title>g</title>
<polygon fill="white" stroke="transparent" points="-4,4 -4,-243 675.39,-243 675.39,4 -4,4"/>
<!-- 0 -->
<g id="node1" class="node">
<title>0</title>
<text text-anchor="middle" x="27" y="-18.3" font-family="Times,serif" font-size="14.00">M: </text>
</g>
<!-- 1 -->
<g id="node2" class="node">
<title>1</title>
<ellipse fill="none" stroke="black" cx="113" cy="-22" rx="18" ry="18"/>
<text text-anchor="middle" x="113" y="-18.3" font-family="Times,serif" font-size="14.00">0</text>
</g>
<!-- 0&#45;&gt;1 -->
<g id="edge1" class="edge">
<title>0&#45;&gt;1</title>
<path fill="none" stroke="black" d="M54.12,-22C63.88,-22 74.98,-22 84.84,-22"/>
<polygon fill="black" stroke="black" points="84.92,-25.5 94.92,-22 84.92,-18.5 84.92,-25.5"/>
</g>
<!-- 2 -->
<g id="node3" class="node">
<title>2</title>
<ellipse fill="none" stroke="black" cx="233.1" cy="-22" rx="18" ry="18"/>
<text text-anchor="middle" x="233.1" y="-18.3" font-family="Times,serif" font-size="14.00">1</text>
</g>
<!-- 1&#45;&gt;2 -->
<g id="edge2" class="edge">
<title>1&#45;&gt;2</title>
<path fill="none" stroke="black" d="M131.17,-22C150.5,-22 182.17,-22 204.87,-22"/>
<polygon fill="black" stroke="black" points="204.9,-25.5 214.9,-22 204.9,-18.5 204.9,-25.5"/>
<text text-anchor="middle" x="173" y="-25.8" font-family="Times,serif" font-size="14.00">d_rev</text>
</g>
<!-- 3 -->
<g id="node4" class="node">
<title>3</title>
<ellipse fill="none" stroke="black" cx="340.2" cy="-22" rx="18" ry="18"/>
<text text-anchor="middle" x="340.2" y="-18.3" font-family="Times,serif" font-size="14.00">2</text>
</g>
<!-- 2&#45;&gt;3 -->
<g id="edge3" class="edge">
<title>2&#45;&gt;3</title>
<path fill="none" stroke="black" d="M251.45,-22C267.91,-22 292.88,-22 311.98,-22"/>
<polygon fill="black" stroke="black" points="312.16,-25.5 322.16,-22 312.16,-18.5 312.16,-25.5"/>
<text text-anchor="middle" x="288.7" y="-25.8" font-family="Times,serif" font-size="14.00">V</text>
</g>
<!-- 4 -->
<g id="node5" class="node">
<title>4</title>
<ellipse fill="none" stroke="black" cx="460.39" cy="-22" rx="18" ry="18"/>
<ellipse fill="none" stroke="black" cx="460.39" cy="-22" rx="22" ry="22"/>
<text text-anchor="middle" x="460.39" y="-18.3" font-family="Times,serif" font-size="14.00">3</text>
</g>
<!-- 3&#45;&gt;4 -->
<g id="edge4" class="edge">
<title>3&#45;&gt;4</title>
<path fill="none" stroke="black" d="M358.38,-22C376.62,-22 405.84,-22 428.17,-22"/>
<polygon fill="black" stroke="black" points="428.19,-25.5 438.19,-22 428.19,-18.5 428.19,-25.5"/>
<text text-anchor="middle" x="398.29" y="-25.8" font-family="Times,serif" font-size="14.00">d</text>
</g>
<!-- v_0 -->
<g id="node6" class="node">
<title>v_0</title>
<text text-anchor="middle" x="27" y="-156.3" font-family="Times,serif" font-size="14.00">V: </text>
</g>
<!-- v_1 -->
<g id="node7" class="node">
<title>v_1</title>
<ellipse fill="none" stroke="black" cx="113" cy="-160" rx="18" ry="18"/>
<ellipse fill="none" stroke="black" cx="113" cy="-160" rx="22" ry="22"/>
<text text-anchor="middle" x="113" y="-156.3" font-family="Times,serif" font-size="14.00">0</text>
</g>
<!-- v_0&#45;&gt;v_1 -->
<g id="edge5" class="edge">
<title>v_0&#45;&gt;v_1</title>
<path fill="none" stroke="black" d="M54.12,-160C62.54,-160 71.96,-160 80.72,-160"/>
<polygon fill="black" stroke="black" points="80.96,-163.5 90.96,-160 80.96,-156.5 80.96,-163.5"/>
</g>
<!-- v_2 -->
<g id="node8" class="node">
<title>v_2</title>
<ellipse fill="none" stroke="black" cx="460.39" cy="-172" rx="18" ry="18"/>
<ellipse fill="none" stroke="black" cx="460.39" cy="-172" rx="22" ry="22"/>
<text text-anchor="middle" x="460.39" y="-168.3" font-family="Times,serif" font-size="14.00">1</text>
</g>
<!-- v_1&#45;&gt;v_2 -->
<g id="edge6" class="edge">
<title>v_1&#45;&gt;v_2</title>
<path fill="none" stroke="black" d="M127.52,-176.75C134.5,-184.58 143.52,-193.58 153,-200 176.1,-215.64 183.64,-218.56 211,-224 279.07,-237.53 409.38,-194.71 420.39,-191 424.03,-189.77 427.77,-188.28 431.42,-186.68"/>
<polygon fill="black" stroke="black" points="433.2,-189.71 440.76,-182.28 430.22,-183.37 433.2,-189.71"/>
<text text-anchor="middle" x="288.7" y="-227.8" font-family="Times,serif" font-size="14.00">V</text>
</g>
<!-- v_5 -->
<g id="node11" class="node">
<title>v_5</title>
<ellipse fill="none" stroke="black" cx="233.1" cy="-193" rx="18" ry="18"/>
<ellipse fill="none" stroke="black" cx="233.1" cy="-193" rx="22" ry="22"/>
<text text-anchor="middle" x="233.1" y="-189.3" font-family="Times,serif" font-size="14.00">4</text>
</g>
<!-- v_1&#45;&gt;v_5 -->
<g id="edge7" class="edge">
<title>v_1&#45;&gt;v_5</title>
<path fill="none" stroke="black" d="M134.3,-165.67C152.89,-170.87 180.65,-178.62 201.85,-184.55"/>
<polygon fill="black" stroke="black" points="201.09,-187.97 211.67,-187.29 202.98,-181.23 201.09,-187.97"/>
<text text-anchor="middle" x="173" y="-184.8" font-family="Times,serif" font-size="14.00">M</text>
</g>
<!-- v_6 -->
<g id="node12" class="node">
<title>v_6</title>
<ellipse fill="none" stroke="black" cx="340.2" cy="-172" rx="18" ry="18"/>
<text text-anchor="middle" x="340.2" y="-168.3" font-family="Times,serif" font-size="14.00">5</text>
</g>
<!-- v_1&#45;&gt;v_6 -->
<g id="edge8" class="edge">
<title>v_1&#45;&gt;v_6</title>
<path fill="none" stroke="black" d="M134.66,-155.05C162.24,-149.15 212.57,-140.79 255.2,-147 275.27,-149.92 297.22,-156.58 313.65,-162.29"/>
<polygon fill="black" stroke="black" points="312.5,-165.6 323.09,-165.69 314.86,-159.01 312.5,-165.6"/>
<text text-anchor="middle" x="233.1" y="-150.8" font-family="Times,serif" font-size="14.00">a_rev</text>
</g>
<!-- v_7 -->
<g id="node13" class="node">
<title>v_7</title>
<ellipse fill="none" stroke="black" cx="233.1" cy="-80" rx="22.2" ry="22.2"/>
<text text-anchor="middle" x="233.1" y="-76.3" font-family="Times,serif" font-size="14.00">p_i</text>
</g>
<!-- v_1&#45;&gt;v_7 -->
<g id="edge13" class="edge">
<title>v_1&#45;&gt;v_7</title>
<path fill="none" stroke="black" d="M124.88,-140.84C131.76,-130.21 141.51,-117.46 153,-109 167.4,-98.4 186.08,-91.31 201.67,-86.8"/>
<polygon fill="black" stroke="black" points="202.64,-90.16 211.39,-84.19 200.83,-83.4 202.64,-90.16"/>
<text text-anchor="middle" x="173" y="-112.8" font-family="Times,serif" font-size="14.00">f_i_rev</text>
</g>
<!-- v_3 -->
<g id="node9" class="node">
<title>v_3</title>
<ellipse fill="none" stroke="black" cx="556.39" cy="-168" rx="18" ry="18"/>
<ellipse fill="none" stroke="black" cx="556.39" cy="-168" rx="22" ry="22"/>
<text text-anchor="middle" x="556.39" y="-164.3" font-family="Times,serif" font-size="14.00">2</text>
</g>
<!-- v_2&#45;&gt;v_3 -->
<g id="edge11" class="edge">
<title>v_2&#45;&gt;v_3</title>
<path fill="none" stroke="black" d="M482.72,-171.09C494.86,-170.58 510.29,-169.92 523.81,-169.34"/>
<polygon fill="black" stroke="black" points="524.3,-172.83 534.15,-168.9 524.01,-165.83 524.3,-172.83"/>
<text text-anchor="middle" x="508.39" y="-173.8" font-family="Times,serif" font-size="14.00">a</text>
</g>
<!-- v_4 -->
<g id="node10" class="node">
<title>v_4</title>
<ellipse fill="none" stroke="black" cx="649.39" cy="-129" rx="18" ry="18"/>
<ellipse fill="none" stroke="black" cx="649.39" cy="-129" rx="22" ry="22"/>
<text text-anchor="middle" x="649.39" y="-125.3" font-family="Times,serif" font-size="14.00">3</text>
</g>
<!-- v_3&#45;&gt;v_4 -->
<g id="edge12" class="edge">
<title>v_3&#45;&gt;v_4</title>
<path fill="none" stroke="black" d="M577.14,-159.54C589.5,-154.24 605.66,-147.32 619.45,-141.4"/>
<polygon fill="black" stroke="black" points="621.18,-144.47 629,-137.31 618.43,-138.03 621.18,-144.47"/>
<text text-anchor="middle" x="602.89" y="-153.8" font-family="Times,serif" font-size="14.00">M</text>
</g>
<!-- v_5&#45;&gt;v_6 -->
<g id="edge9" class="edge">
<title>v_5&#45;&gt;v_6</title>
<path fill="none" stroke="black" d="M254.86,-188.85C271.36,-185.55 294.57,-180.92 312.46,-177.34"/>
<polygon fill="black" stroke="black" points="313.17,-180.77 322.29,-175.38 311.79,-173.91 313.17,-180.77"/>
<text text-anchor="middle" x="288.7" y="-187.8" font-family="Times,serif" font-size="14.00">a_rev</text>
</g>
<!-- v_6&#45;&gt;v_2 -->
<g id="edge10" class="edge">
<title>v_6&#45;&gt;v_2</title>
<path fill="none" stroke="black" d="M358.38,-172C376.62,-172 405.84,-172 428.17,-172"/>
<polygon fill="black" stroke="black" points="428.19,-175.5 438.19,-172 428.19,-168.5 428.19,-175.5"/>
<text text-anchor="middle" x="398.29" y="-175.8" font-family="Times,serif" font-size="14.00">V</text>
</g>
<!-- v_8 -->
<g id="node14" class="node">
<title>v_8</title>
<ellipse fill="none" stroke="black" cx="398.29" cy="-96" rx="22.2" ry="22.2"/>
<text text-anchor="middle" x="398.29" y="-92.3" font-family="Times,serif" font-size="14.00">q_i</text>
</g>
<!-- v_7&#45;&gt;v_8 -->
<g id="edge14" class="edge">
<title>v_7&#45;&gt;v_8</title>
<path fill="none" stroke="black" d="M255.43,-82.09C283.61,-84.85 333.45,-89.74 365.92,-92.92"/>
<polygon fill="black" stroke="black" points="365.92,-96.44 376.21,-93.93 366.6,-89.47 365.92,-96.44"/>
<text text-anchor="middle" x="288.7" y="-90.8" font-family="Times,serif" font-size="14.00">V</text>
</g>
<!-- v_8&#45;&gt;v_4 -->
<g id="edge15" class="edge">
<title>v_8&#45;&gt;v_4</title>
<path fill="none" stroke="black" d="M420.53,-98.81C464.58,-104.65 566.04,-118.09 617.4,-124.89"/>
<polygon fill="black" stroke="black" points="617.19,-128.4 627.56,-126.24 618.11,-121.46 617.19,-128.4"/>
<text text-anchor="middle" x="508.39" y="-115.8" font-family="Times,serif" font-size="14.00">f_i</text>
</g>
</g>
</svg>
